<?xml version="1.0" encoding="UTF-8"?>
<svg width="150px" height="40px" viewBox="0 0 150 40" version="1.1" xmlns="http://www.w3.org/2000/svg" xmlns:xlink="http://www.w3.org/1999/xlink">
    <!-- Generator: Sketch 41.2 (35397) - http://www.bohemiancoding.com/sketch -->
    <title>lgo-escariz-hor</title>
    <desc>Created with Sketch.</desc>
    <defs></defs>
    <g id="Page-1" stroke="none" stroke-width="1" fill="none" fill-rule="evenodd">
        <g id="lgo-escariz-hor">
            <g id="Texto" transform="translate(101.000000, 0.000000)" fill="#75797A">
                <path d="M5.39353926,39.597265 C5.39353926,39.735165 5.32890839,39.803965 5.19894195,39.803965 L1.02753255,39.803965 C0.89776745,39.803965 0.832935235,39.735165 0.832935235,39.597265 L0.832935235,31.622165 C0.832935235,31.484165 0.89776745,31.415065 1.02753255,31.415065 L5.19894195,31.415065 C5.32890839,31.415065 5.39353926,31.484165 5.39353926,31.622165 C5.39353926,31.759865 5.32890839,31.828665 5.19894195,31.828665 L1.22223054,31.828665 L1.22223054,35.402865 L4.36478087,35.402865 C4.49424396,35.402865 4.55937819,35.471965 4.55937819,35.609665 C4.55937819,35.747365 4.49424396,35.816465 4.36478087,35.816465 L1.22223054,35.816465 L1.22223054,39.390465 L5.19894195,39.390465 C5.32890839,39.390465 5.39353926,39.459265 5.39353926,39.597265 L5.39353926,39.597265 Z" id="Fill-6"></path>
                <path d="M11.5272305,37.381865 C11.5272305,38.051365 11.3030359,38.622565 10.854244,39.095065 C10.4093782,39.567665 9.87340503,39.803965 9.24692852,39.803965 C8.83890839,39.803965 8.45716342,39.695865 8.1010896,39.479065 C7.74884128,39.258565 7.47068691,38.963165 7.26692852,38.593065 C7.2485057,38.553565 7.23914329,38.516165 7.23914329,38.480565 C7.23914329,38.346965 7.30770034,38.279865 7.44481443,38.279865 C7.50410973,38.279865 7.55786812,38.315265 7.6060896,38.386065 C7.64313658,38.449265 7.70434463,38.543765 7.78971376,38.669765 C8.1642104,39.150165 8.64984799,39.390465 9.24692852,39.390465 C9.76598893,39.390465 10.2108547,39.193665 10.5817272,38.799865 C10.9525997,38.405765 11.1379352,37.933165 11.1379352,37.381865 C11.1379352,36.830665 10.9525997,36.357965 10.5817272,35.964165 C10.2108547,35.570165 9.76598893,35.373365 9.24692852,35.373365 C8.73149228,35.373365 8.29206275,35.180265 7.9287406,34.794265 C7.56551913,34.404565 7.38360638,33.937765 7.38360638,33.394365 C7.38360638,32.850865 7.56551913,32.386065 7.9287406,32.000065 C8.29206275,31.610165 8.73149228,31.415065 9.24692852,31.415065 C9.95525067,31.415065 10.4908211,31.742265 10.854244,32.395765 C10.8766936,32.431165 10.8876668,32.468765 10.8876668,32.508065 C10.8876668,32.642165 10.8189084,32.709065 10.6817943,32.709065 C10.6338748,32.709065 10.5483044,32.634065 10.4258883,32.484465 C10.2739755,32.291565 10.1331366,32.149665 10.0031701,32.059165 C9.78441174,31.905565 9.53253255,31.828665 9.24692852,31.828665 C8.83890839,31.828665 8.4903849,31.982265 8.20105604,32.289565 C7.91575403,32.596765 7.77300235,32.965165 7.77300235,33.394365 C7.77300235,33.823565 7.91575403,34.191665 8.20105604,34.499065 C8.4903849,34.806165 8.83890839,34.959765 9.24692852,34.959765 C9.87340503,34.959765 10.4093782,35.196065 10.854244,35.668765 C11.3030359,36.141165 11.5272305,36.712465 11.5272305,37.381865 L11.5272305,37.381865 Z" id="Fill-7"></path>
                <path d="M20.1746802,38.433365 C20.1746802,38.484665 20.1543446,38.532065 20.1135728,38.575265 C19.3756534,39.394365 18.44515,39.803965 17.3214587,39.803965 C16.2314923,39.803965 15.3008883,39.394365 14.5294453,38.575265 C13.7582037,37.756165 13.3728346,36.767365 13.3728346,35.609665 C13.3728346,34.451965 13.7582037,33.463165 14.5294453,32.643865 C15.3008883,31.824965 16.2314923,31.415065 17.3214587,31.415065 C18.44515,31.415065 19.3756534,31.824965 20.1135728,32.643865 C20.1543446,32.687265 20.1746802,32.734465 20.1746802,32.785965 C20.1746802,32.927565 20.1081366,32.998365 19.9744453,32.998365 C19.93015,32.998365 19.8837406,32.976865 19.8355191,32.933365 C19.0272305,32.196865 18.1890426,31.828665 17.3214587,31.828665 C16.3388077,31.828665 15.4993111,32.199065 14.8019621,32.939465 C14.1086399,33.676065 13.7621299,34.565965 13.7621299,35.609665 C13.7621299,36.653365 14.1086399,37.545265 14.8019621,38.285665 C15.4993111,39.022265 16.3388077,39.390465 17.3214587,39.390465 C18.1890426,39.390465 19.0272305,39.022265 19.8355191,38.285665 C19.8837406,38.242465 19.93015,38.220765 19.9744453,38.220765 C20.1081366,38.220765 20.1746802,38.291565 20.1746802,38.433365 L20.1746802,38.433365 Z" id="Fill-8"></path>
                <path d="M29.9235728,39.603065 C29.9235728,39.737065 29.8550158,39.803965 29.717801,39.803965 C29.6439084,39.803965 29.5880359,39.766665 29.5509889,39.691665 L28.3550158,37.145565 L28.3385057,37.145565 L23.5888413,37.145565 L22.3928681,39.691665 C22.3560225,39.766665 22.3002507,39.803965 22.2259554,39.803965 C22.0888413,39.803965 22.0202842,39.737065 22.0202842,39.603065 C22.0202842,39.555965 22.5986399,38.295465 23.755452,35.822365 C24.9086399,33.364765 25.5835393,31.945165 25.7802507,31.563065 C25.8320963,31.464365 25.8950158,31.415065 25.9692104,31.415065 C26.0471299,31.415065 26.1120628,31.464365 26.1639084,31.563065 C26.3605191,31.945165 27.0351164,33.364765 28.188405,35.822365 C29.3452171,38.295465 29.9235728,39.555965 29.9235728,39.603065 L29.9235728,39.603065 Z M28.1606198,36.731965 L25.9746466,32.082765 L23.7832372,36.731965 L28.1606198,36.731965 L28.1606198,36.731965 Z" id="Fill-9"></path>
                <path d="M36.8916265,39.597265 C36.8916265,39.739065 36.8247809,39.809865 36.6912909,39.809865 C36.6394453,39.809865 36.5930359,39.788165 36.5522641,39.744965 L33.2430023,36.223965 C33.1836064,36.164865 33.1541097,36.107965 33.1541097,36.052565 C33.1541097,35.914865 33.2337406,35.845965 33.3932037,35.845965 L34.6056869,35.845965 C35.1247473,35.845965 35.5696131,35.648965 35.9404856,35.255165 C36.3113581,34.861365 36.4966936,34.388765 36.4966936,33.837165 C36.4966936,33.285965 36.3113581,32.813265 35.9404856,32.419465 C35.5696131,32.025665 35.1247473,31.828665 34.6056869,31.828665 L32.7145795,31.828665 L32.7145795,39.597265 C32.7145795,39.735165 32.6497473,39.803965 32.5199822,39.803965 C32.3899151,39.803965 32.3252842,39.735165 32.3252842,39.597265 L32.3252842,31.610165 C32.3252842,31.480265 32.3899151,31.415065 32.5199822,31.415065 L34.6056869,31.415065 C35.2357876,31.415065 35.7735728,31.651665 36.2184386,32.124365 C36.6636064,32.596765 36.8857876,33.168065 36.8857876,33.837165 C36.8857876,34.506865 36.6636064,35.077965 36.2184386,35.550565 C35.7735728,36.022965 35.2357876,36.259565 34.6056869,36.259565 L33.8213581,36.259565 L36.8304185,39.449465 C36.8709889,39.492965 36.8916265,39.542065 36.8916265,39.597265 L36.8916265,39.597265 Z" id="Fill-10"></path>
                <path d="M39.6824319,39.597265 C39.6824319,39.735165 39.6175997,39.803965 39.4878346,39.803965 C39.3577674,39.803965 39.2931366,39.735165 39.2931366,39.597265 L39.2931366,31.622165 C39.2931366,31.484165 39.3577674,31.415065 39.4878346,31.415065 C39.6175997,31.415065 39.6824319,31.484165 39.6824319,31.622165 L39.6824319,39.597265 L39.6824319,39.597265 Z" id="Fill-11"></path>
                <path d="M48.3189084,31.622165 C48.3189084,31.665365 48.2965594,31.718565 48.2520628,31.781565 L42.6790091,39.390465 L48.1242104,39.390465 C48.2537742,39.390465 48.3189084,39.459265 48.3189084,39.597265 C48.3189084,39.735165 48.2537742,39.803965 48.1242104,39.803965 L42.2842775,39.809865 C42.1507876,39.809865 42.0839419,39.739065 42.0839419,39.597265 C42.0839419,39.553965 42.1062909,39.500765 42.1507876,39.437765 L47.7236399,31.828665 L42.2842775,31.828665 C42.1545124,31.828665 42.0895795,31.759865 42.0895795,31.622165 C42.0895795,31.484165 42.1545124,31.415065 42.2842775,31.415065 L48.1185728,31.409265 C48.2520628,31.409265 48.3189084,31.480265 48.3189084,31.622165 L48.3189084,31.622165 Z" id="Fill-12"></path>
                <path d="M7.4794453,20.101365 C7.4794453,21.259365 7.09357282,22.247865 6.32263322,23.066965 C5.5510896,23.886065 4.62058624,24.295665 3.53051913,24.295665 L1.02753255,24.295665 C0.89776745,24.295665 0.832935235,24.226865 0.832935235,24.088965 L0.832935235,16.113865 C0.832935235,15.975865 0.89776745,15.907065 1.02753255,15.907065 L3.53051913,15.907065 C4.62058624,15.907065 5.5510896,16.316665 6.32263322,17.135765 C7.09357282,17.954865 7.4794453,18.943665 7.4794453,20.101365 L7.4794453,20.101365 Z M7.09015,20.101365 C7.09015,19.057865 6.74142517,18.167765 6.04437819,17.431165 C5.35105604,16.690765 4.51296879,16.320365 3.53051913,16.320365 L1.22223054,16.320365 L1.22223054,23.882165 L3.53051913,23.882165 C4.51296879,23.882165 5.35105604,23.513965 6.04437819,22.777365 C6.74142517,22.036865 7.09015,21.145065 7.09015,20.101365 L7.09015,20.101365 Z" id="Fill-13"></path>
                <path d="M14.643707,24.088965 C14.643707,24.226865 14.5790762,24.295665 14.4490091,24.295665 L10.2777003,24.295665 C10.1479352,24.295665 10.0833044,24.226865 10.0833044,24.088965 L10.0833044,16.113865 C10.0833044,15.975865 10.1479352,15.907065 10.2777003,15.907065 L14.4490091,15.907065 C14.5790762,15.907065 14.643707,15.975865 14.643707,16.113865 C14.643707,16.251465 14.5790762,16.320365 14.4490091,16.320365 L10.4722977,16.320365 L10.4722977,19.894565 L13.614848,19.894565 C13.7446131,19.894565 13.809546,19.963665 13.809546,20.101365 C13.809546,20.239265 13.7446131,20.308165 13.614848,20.308165 L10.4722977,20.308165 L10.4722977,23.882165 L14.4490091,23.882165 C14.5790762,23.882165 14.643707,23.950965 14.643707,24.088965 L14.643707,24.088965 Z" id="Fill-14"></path>
                <path d="M23.4824319,24.088965 C23.4824319,24.226865 23.4157876,24.295665 23.2820963,24.295665 C23.2229017,24.295665 23.1653178,24.260265 23.109848,24.189465 L17.642499,16.716365 L17.642499,24.088965 C17.642499,24.226865 17.5775661,24.295665 17.447801,24.295665 C17.3180359,24.295665 17.253103,24.226865 17.253103,24.088965 L17.2477674,16.113865 C17.2477674,15.975865 17.3143111,15.907065 17.447801,15.907065 C17.5072977,15.907065 17.5645795,15.942465 17.6203513,16.013465 L23.0931366,23.486365 L23.0931366,16.113865 C23.0931366,15.975865 23.1579688,15.907065 23.2877339,15.907065 C23.417499,15.907065 23.4824319,15.975865 23.4824319,16.113865 L23.4824319,24.088965 L23.4824319,24.088965 Z" id="Fill-15"></path>
                <path d="M31.4812574,16.113865 C31.4812574,16.251465 31.4164252,16.320365 31.2866601,16.320365 L28.9782708,16.320365 L28.9782708,24.088965 C28.9782708,24.226865 28.9136399,24.295665 28.7838748,24.295665 C28.6539084,24.295665 28.5889755,24.226865 28.5889755,24.088965 L28.5889755,16.320365 L26.2808883,16.320365 C26.1511232,16.320365 26.0861903,16.251465 26.0861903,16.113865 C26.0861903,15.975865 26.1511232,15.907065 26.2808883,15.907065 L31.2866601,15.907065 C31.4164252,15.907065 31.4812574,15.975865 31.4812574,16.113865 L31.4812574,16.113865 Z" id="Fill-16"></path>
                <path d="M41.1541433,24.094765 C41.1541433,24.228765 41.0855862,24.295665 40.9482708,24.295665 C40.8742775,24.295665 40.818707,24.258365 40.7815594,24.183365 L39.5855862,21.637265 L39.5691768,21.637265 L34.8192104,21.637265 L33.6232372,24.183365 C33.5863916,24.258365 33.5308211,24.295665 33.4566265,24.295665 C33.3195124,24.295665 33.2509554,24.228765 33.2509554,24.094765 C33.2509554,24.047665 33.8292104,22.787365 34.9861232,20.313965 C36.1393111,17.856465 36.8142104,16.436865 37.0106198,16.054765 C37.0624654,15.956065 37.1255862,15.907065 37.1995795,15.907065 C37.277801,15.907065 37.3426332,15.956065 37.3944789,16.054765 C37.5908883,16.436865 38.2657876,17.856465 39.4189755,20.313965 C40.5758883,22.787365 41.1541433,24.047665 41.1541433,24.094765 L41.1541433,24.094765 Z M39.3911903,21.223965 L37.2052171,16.574465 L35.0139084,21.223965 L39.3911903,21.223965 L39.3911903,21.223965 Z" id="Fill-17"></path>
                <path d="M48.3186064,24.088965 C48.3186064,24.226865 48.2539755,24.295665 48.1240091,24.295665 L43.9525997,24.295665 C43.8228346,24.295665 43.7582037,24.226865 43.7582037,24.088965 L43.7582037,16.113865 C43.7582037,15.975865 43.8228346,15.907065 43.9525997,15.907065 C44.0823648,15.907065 44.1472977,15.975865 44.1472977,16.113865 L44.1472977,23.882165 L48.1240091,23.882165 C48.2539755,23.882165 48.3186064,23.950965 48.3186064,24.088965 L48.3186064,24.088965 Z" id="Fill-18"></path>
                <path d="M7.07887483,7.416765 C7.07887483,7.468065 7.05843859,7.515465 7.01766678,7.558665 C6.27984799,8.377765 5.34904262,8.787365 4.22565336,8.787365 C3.13558624,8.787365 2.20478087,8.377765 1.43353926,7.558665 C0.662297651,6.739565 0.276727181,5.751065 0.276727181,4.593065 C0.276727181,3.435365 0.662297651,2.446565 1.43353926,1.627465 C2.20478087,0.808365 3.13558624,0.398765 4.22565336,0.398765 C5.34904262,0.398765 6.27984799,0.808365 7.01766678,1.627465 C7.05843859,1.670665 7.07887483,1.718065 7.07887483,1.769365 C7.07887483,1.910965 7.01202919,1.981765 6.87853926,1.981765 C6.83404262,1.981765 6.78783456,1.960265 6.73971376,1.916765 C5.9313245,1.180465 5.09323725,0.812065 4.22565336,0.812065 C3.24300235,0.812065 2.40320369,1.182465 1.70615671,1.922865 C1.01283456,2.659465 0.666022483,3.549565 0.666022483,4.593065 C0.666022483,5.636765 1.01283456,6.528565 1.70615671,7.269065 C2.40320369,8.005665 3.24300235,8.373865 4.22565336,8.373865 C5.09323725,8.373865 5.9313245,8.005665 6.73971376,7.269065 C6.78783456,7.225865 6.83404262,7.204165 6.87853926,7.204165 C7.01202919,7.204165 7.07887483,7.274965 7.07887483,7.416765 L7.07887483,7.416765 Z" id="Fill-19"></path>
                <path d="M14.0400829,8.580865 C14.0400829,8.718565 13.975452,8.787365 13.8456869,8.787365 L9.67427752,8.787365 C9.54431107,8.787365 9.4796802,8.718565 9.4796802,8.580865 L9.4796802,0.605565 C9.4796802,0.467565 9.54431107,0.398765 9.67427752,0.398765 C9.80404262,0.398765 9.8689755,0.467565 9.8689755,0.605565 L9.8689755,8.373865 L13.8456869,8.373865 C13.975452,8.373865 14.0400829,8.442965 14.0400829,8.580865 L14.0400829,8.580865 Z" id="Fill-20"></path>
                <path d="M16.8303849,8.580865 C16.8303849,8.718565 16.7652507,8.787365 16.6354856,8.787365 C16.5057205,8.787365 16.4410896,8.718565 16.4410896,8.580865 L16.4410896,0.605565 C16.4410896,0.467565 16.5057205,0.398765 16.6354856,0.398765 C16.7652507,0.398765 16.8303849,0.467565 16.8303849,0.605565 L16.8303849,8.580865 L16.8303849,8.580865 Z" id="Fill-21"></path>
                <path d="M26.0218614,8.580865 C26.0218614,8.718565 25.9552171,8.787365 25.8217272,8.787365 C25.7622305,8.787365 25.7047473,8.751965 25.6491768,8.681165 L20.1818279,1.208065 L20.1818279,8.580865 C20.1818279,8.718565 20.1169956,8.787365 19.9872305,8.787365 C19.8576668,8.787365 19.7925326,8.718565 19.7925326,8.580865 L19.7870963,0.605565 C19.7870963,0.467565 19.8537406,0.398765 19.9872305,0.398765 C20.0466265,0.398765 20.1039084,0.434165 20.1597809,0.505165 L25.6327674,7.978065 L25.6327674,0.605565 C25.6327674,0.467565 25.6975997,0.398765 25.8271634,0.398765 C25.9569285,0.398765 26.0218614,0.467565 26.0218614,0.605565 L26.0218614,8.580865 L26.0218614,8.580865 Z" id="Fill-22"></path>
                <path d="M29.3680695,8.580865 C29.3680695,8.718565 29.3032372,8.787365 29.1734721,8.787365 C29.043405,8.787365 28.9787742,8.718565 28.9787742,8.580865 L28.9787742,0.605565 C28.9787742,0.467565 29.043405,0.398765 29.1734721,0.398765 C29.3032372,0.398765 29.3680695,0.467565 29.3680695,0.605565 L29.3680695,8.580865 L29.3680695,8.580865 Z" id="Fill-23"></path>
                <path d="M38.5708211,7.416765 C38.5708211,7.468065 38.5503849,7.515465 38.5096131,7.558665 C37.7717943,8.377765 36.8409889,8.787365 35.7175997,8.787365 C34.6272305,8.787365 33.6967272,8.377765 32.9254856,7.558665 C32.154244,6.739565 31.7685728,5.751065 31.7685728,4.593065 C31.7685728,3.435365 32.154244,2.446565 32.9254856,1.627465 C33.6967272,0.808365 34.6272305,0.398765 35.7175997,0.398765 C36.8409889,0.398765 37.7717943,0.808365 38.5096131,1.627465 C38.5503849,1.670665 38.5708211,1.718065 38.5708211,1.769365 C38.5708211,1.910965 38.5039755,1.981765 38.3704856,1.981765 C38.3259889,1.981765 38.2797809,1.960265 38.2316601,1.916765 C37.4232708,1.180465 36.5851836,0.812065 35.7175997,0.812065 C34.7349487,0.812065 33.89515,1.182465 33.198103,1.922865 C32.5046802,2.659465 32.1579688,3.549565 32.1579688,4.593065 C32.1579688,5.636765 32.5046802,6.528565 33.198103,7.269065 C33.89515,8.005665 34.7349487,8.373865 35.7175997,8.373865 C36.5851836,8.373865 37.4232708,8.005665 38.2316601,7.269065 C38.2797809,7.225865 38.3259889,7.204165 38.3704856,7.204165 C38.5039755,7.204165 38.5708211,7.274965 38.5708211,7.416765 L38.5708211,7.416765 Z" id="Fill-24"></path>
                <path d="M48.3186064,8.586765 C48.3186064,8.720465 48.2500493,8.787365 48.1127339,8.787365 C48.0387406,8.787365 47.9831701,8.750065 47.9460225,8.675365 L46.7500493,6.128965 L46.7336399,6.128965 L41.9836735,6.128965 L40.7877003,8.675365 C40.7508547,8.750065 40.6952842,8.787365 40.6210896,8.787365 C40.4839755,8.787365 40.4154185,8.720465 40.4154185,8.586765 C40.4154185,8.539365 40.9936735,7.279065 42.1505862,4.805665 C43.3037742,2.348165 43.9786735,0.928565 44.1750829,0.546465 C44.2271299,0.447765 44.2900493,0.398765 44.3640426,0.398765 C44.4422641,0.398765 44.5070963,0.447765 44.5589419,0.546465 C44.7553513,0.928565 45.4302507,2.348165 46.5834386,4.805665 C47.7403513,7.279065 48.3186064,8.539365 48.3186064,8.586765 L48.3186064,8.586765 Z M46.5556534,5.715665 L44.3696802,1.066165 L42.1783715,5.715665 L46.5556534,5.715665 L46.5556534,5.715665 Z" id="Fill-25"></path>
            </g>
            <g id="Symbol">
                <path d="M94.1809603,8.69964555 L67,8.69964555 L67,0 L94.1809603,0 L94.1809603,8.69964555 L94.1809603,8.69964555 Z M83.1070352,16.0003654 L83.1070352,23.8501412 L83.1070352,24.2498053 L67,24.2498053 L67,23.8501412 L67,16.0003654 L83.1070352,16.0003654 L83.1070352,16.0003654 Z M94.1809603,31.30005 L94.1809603,40 L67,40 L67,31.30005 L94.1809603,31.30005 L94.1809603,31.30005 Z" id="Fill-3" fill="#ACADAC"></path>
                <path d="M34.0507542,0 L41.1305561,0.0494034633 C49.1137419,0.0998192927 61.2142339,5.68565022 61.3147232,20.398771 C61.3652735,32.8173641 49.8669014,39.9498879 41.9335526,40 L34.0507542,40 L34,31.4710185 L40.1261735,31.4710185 C43.8917675,31.6203425 52.2772159,29.5259596 52.1761152,19.5009035 C52.1761152,11.820386 45.1467617,8.57838497 41.0293535,8.62778844 L34.0507542,8.62778844 L34.0507542,0 L34.0507542,0 Z" id="Fill-4" fill="#3DC5DD"></path>
                <path d="M20.1841293,0.0494034633 C12.2009436,0.0998192927 0.100451497,5.68565022 0.000166108274,20.398771 C-0.0503842503,32.8173641 11.447784,39.9498879 19.3811328,40 L27.264237,40 L27.3146854,31.4710185 L21.188512,31.4710185 C17.4229179,31.6203425 9.03746952,29.5259596 9.13877407,19.5009035 C9.13877407,11.820386 16.1681276,8.57838497 20.285332,8.62778844 L27.264237,8.62778844 L27.264237,0 L20.1841293,0.0494034633 Z" id="Fill-5" fill="#3DC5DD"></path>
            </g>
        </g>
    </g>
</svg>