<?xml version="1.0" encoding="UTF-8"?>
<svg width="95px" height="130px" viewBox="0 0 95 130" version="1.1" xmlns="http://www.w3.org/2000/svg" xmlns:xlink="http://www.w3.org/1999/xlink">
    <!-- Generator: Sketch 41.2 (35397) - http://www.bohemiancoding.com/sketch -->
    <title>lgo-escariz-ver</title>
    <desc>Created with Sketch.</desc>
    <defs></defs>
    <g id="Page-1" stroke="none" stroke-width="1" fill="none" fill-rule="evenodd">
        <g id="lgo-escariz-ver">
            <g id="Texto" transform="translate(0.000000, 60.000000)" fill="#989998">
                <path d="M10.4348195,68.6083816 C10.4348195,68.8751752 10.3097789,69.0082818 10.0583343,69.0082818 L1.98795563,69.0082818 C1.73690055,69.0082818 1.6114704,68.8751752 1.6114704,68.6083816 L1.6114704,53.1790457 C1.6114704,52.9120586 1.73690055,52.7783716 1.98795563,52.7783716 L10.0583343,52.7783716 C10.3097789,52.7783716 10.4348195,52.9120586 10.4348195,53.1790457 C10.4348195,53.4454523 10.3097789,53.5785589 10.0583343,53.5785589 L2.36463562,53.5785589 L2.36463562,60.4935233 L8.44449228,60.4935233 C8.69496306,60.4935233 8.82097751,60.6272103 8.82097751,60.8936169 C8.82097751,61.1600236 8.69496306,61.2937105 8.44449228,61.2937105 L2.36463562,61.2937105 L2.36463562,68.208288 L10.0583343,68.208288 C10.3097789,68.208288 10.4348195,68.3413946 10.4348195,68.6083816 L10.4348195,68.6083816 Z" id="Fill-6"></path>
                <path d="M22.3016028,64.3222723 C22.3016028,65.6175463 21.867856,66.7226405 20.9995833,67.636781 C20.1389065,68.5511148 19.1019653,69.0082818 17.8899282,69.0082818 C17.1005363,69.0082818 16.3619786,68.7991419 15.6730866,68.3797014 C14.9915957,67.9531026 14.4534536,67.3815955 14.0592446,66.6655672 C14.0236022,66.589147 14.0054888,66.5167897 14.0054888,66.4479147 C14.0054888,66.1894403 14.1381254,66.0596227 14.4033984,66.0596227 C14.5181164,66.0596227 14.6221221,66.1281107 14.7154157,66.2650867 C14.7870901,66.387359 14.9055086,66.5701871 15.0706713,66.8139578 C15.7952057,67.7433823 16.7347633,68.208288 17.8899282,68.208288 C18.8941485,68.208288 19.7548253,67.8275413 20.4723481,67.0656608 C21.1898709,66.3032 21.5484376,65.3888661 21.5484376,64.3222723 C21.5484376,63.2558718 21.1898709,62.3413445 20.4723481,61.5794641 C19.7548253,60.8171967 18.8941485,60.43645 17.8899282,60.43645 C16.8927196,60.43645 16.0425602,60.0628616 15.3396449,59.3160717 C14.6369245,58.5621235 14.2849799,57.6590109 14.2849799,56.607701 C14.2849799,55.5561977 14.6369245,54.6569544 15.3396449,53.9101645 C16.0425602,53.1558294 16.8927196,52.7783716 17.8899282,52.7783716 C19.2603111,52.7783716 20.2964732,53.4114018 20.9995833,54.6757209 C21.0430164,54.7442088 21.064246,54.8169531 21.064246,54.8929864 C21.064246,55.1524282 20.9312199,55.2818588 20.6659468,55.2818588 C20.5732376,55.2818588 20.4076854,55.1367572 20.1708483,54.8473278 C19.8769444,54.4741263 19.604465,54.199594 19.3530203,54.0245046 C18.929791,53.7273365 18.4424831,53.5785589 17.8899282,53.5785589 C17.1005363,53.5785589 16.4262518,53.8757271 15.8664905,54.4702569 C15.31452,55.0645933 15.0383399,55.7773326 15.0383399,56.607701 C15.0383399,57.4380694 15.31452,58.1502283 15.8664905,58.7449516 C16.4262518,59.3390945 17.1005363,59.6362627 17.8899282,59.6362627 C19.1019653,59.6362627 20.1389065,60.0934297 20.9995833,61.007957 C21.867856,61.921904 22.3016028,63.0271916 22.3016028,64.3222723 L22.3016028,64.3222723 Z" id="Fill-7"></path>
                <path d="M39.0317261,66.3565974 C39.0317261,66.455847 38.9923831,66.5475512 38.9135023,66.6311298 C37.4858578,68.2158333 35.6856235,69.0082818 33.5116307,69.0082818 C31.4028849,69.0082818 29.6024558,68.2158333 28.1099538,66.6311298 C26.6178414,65.0464262 25.8722721,63.133406 25.8722721,60.8936169 C25.8722721,58.6538278 26.6178414,56.7408076 28.1099538,55.1557171 C29.6024558,53.5714005 31.4028849,52.7783716 33.5116307,52.7783716 C35.6856235,52.7783716 37.4858578,53.5714005 38.9135023,55.1557171 C38.9923831,55.2396826 39.0317261,55.3309999 39.0317261,55.4306364 C39.0317261,55.7045883 38.9029849,55.8415643 38.6443339,55.8415643 C38.5586362,55.8415643 38.4688485,55.7999685 38.375555,55.7158095 C36.8117681,54.2909113 35.1901354,53.5785589 33.5116307,53.5785589 C31.6105069,53.5785589 29.9863422,54.2951676 28.637189,55.7276111 C27.2958264,57.1527028 26.6254373,58.8743823 26.6254373,60.8936169 C26.6254373,62.9128515 27.2958264,64.6384004 28.637189,66.0708439 C29.9863422,67.4959356 31.6105069,68.208288 33.5116307,68.208288 C35.1901354,68.208288 36.8117681,67.4959356 38.375555,66.0708439 C38.4688485,65.9872654 38.5586362,65.9452826 38.6443339,65.9452826 C38.9029849,65.9452826 39.0317261,66.0822586 39.0317261,66.3565974 L39.0317261,66.3565974 Z" id="Fill-8"></path>
                <path d="M57.8927986,68.6196028 C57.8927986,68.8788511 57.760162,69.0082818 57.4946942,69.0082818 C57.3517349,69.0082818 57.2436391,68.9361179 57.1719647,68.7910162 L54.8581289,63.8651053 L54.8261871,63.8651053 L45.6370649,63.8651053 L43.3232292,68.7910162 C43.2519443,68.9361179 43.1440433,69.0082818 43.000305,69.0082818 C42.7350319,69.0082818 42.6023953,68.8788511 42.6023953,68.6196028 C42.6023953,68.528479 43.7213336,66.0898039 45.9594049,61.3051252 C48.1904645,56.5504342 49.4961846,53.8039501 49.87676,53.0647056 C49.9770651,52.8737518 50.0987947,52.7783716 50.2423382,52.7783716 C50.3930881,52.7783716 50.5187131,52.8737518 50.6190182,53.0647056 C50.9993988,53.8039501 52.3045346,56.5504342 54.535789,61.3051252 C56.7738603,66.0898039 57.8927986,68.528479 57.8927986,68.6196028 L57.8927986,68.6196028 Z M54.4820332,63.0649181 L50.2528557,54.0701633 L46.0131606,63.0649181 L54.4820332,63.0649181 L54.4820332,63.0649181 Z" id="Fill-9"></path>
                <path d="M71.3738134,68.6083816 C71.3738134,68.8827205 71.2444879,69.0196964 70.9862264,69.0196964 C70.8859212,69.0196964 70.7961335,68.9777137 70.7172527,68.8941351 L64.3148614,62.0820962 C64.1999487,61.9677561 64.1428819,61.8576723 64.1428819,61.7504905 C64.1428819,61.4840839 64.2969428,61.3507839 64.6054542,61.3507839 L66.9512318,61.3507839 C67.9554521,61.3507839 68.8161289,60.9696502 69.5336517,60.2077698 C70.2511745,59.4458894 70.6097412,58.5315555 70.6097412,57.4643812 C70.6097412,56.3979808 70.2511745,55.4834534 69.5336517,54.721573 C68.8161289,53.9596926 67.9554521,53.5785589 66.9512318,53.5785589 L63.2925277,53.5785589 L63.2925277,68.6083816 C63.2925277,68.8751752 63.1670976,69.0082818 62.9160425,69.0082818 C62.6644031,69.0082818 62.5393625,68.8751752 62.5393625,68.6083816 L62.5393625,53.1558294 C62.5393625,52.9045133 62.6644031,52.7783716 62.9160425,52.7783716 L66.9512318,52.7783716 C68.1702805,52.7783716 69.2107275,53.236119 70.0714043,54.1506463 C70.9326654,55.0645933 71.3625169,56.169881 71.3625169,57.4643812 C71.3625169,58.7600422 70.9326654,59.8649429 70.0714043,60.7792768 C69.2107275,61.6932238 68.1702805,62.1509711 66.9512318,62.1509711 L65.4337997,62.1509711 L71.2553948,68.3224346 C71.3338861,68.4065936 71.3738134,68.5015868 71.3738134,68.6083816 L71.3738134,68.6083816 Z" id="Fill-10"></path>
                <path d="M76.773153,68.6083816 C76.773153,68.8751752 76.6477229,69.0082818 76.3966678,69.0082818 C76.1450284,69.0082818 76.0199878,68.8751752 76.0199878,68.6083816 L76.0199878,53.1790457 C76.0199878,52.9120586 76.1450284,52.7783716 76.3966678,52.7783716 C76.6477229,52.7783716 76.773153,52.9120586 76.773153,53.1790457 L76.773153,68.6083816 L76.773153,68.6083816 Z" id="Fill-11"></path>
                <path d="M93.4820466,53.1790457 C93.4820466,53.2626242 93.4388083,53.3655497 93.3527211,53.4874351 L82.5705971,68.208288 L93.1053666,68.208288 C93.3560322,68.208288 93.4820466,68.3413946 93.4820466,68.6083816 C93.4820466,68.8751752 93.3560322,69.0082818 93.1053666,69.0082818 L81.8069144,69.0196964 C81.5486529,69.0196964 81.4193274,68.8827205 81.4193274,68.6083816 C81.4193274,68.5246096 81.4625658,68.4216842 81.5486529,68.2997988 L92.3303875,53.5785589 L81.8069144,53.5785589 C81.5558593,53.5785589 81.4302344,53.4454523 81.4302344,53.1790457 C81.4302344,52.9120586 81.5558593,52.7783716 81.8069144,52.7783716 L93.0944597,52.7671505 C93.3527211,52.7671505 93.4820466,52.9045133 93.4820466,53.1790457 L93.4820466,53.1790457 Z" id="Fill-12"></path>
                <path d="M14.4703984,34.889884 C14.4703984,37.1302535 13.7238553,39.0426933 12.2323271,40.6273968 C10.7396304,42.2121003 8.93939604,43.0045488 6.8304555,43.0045488 L1.98795563,43.0045488 C1.73690055,43.0045488 1.6114704,42.8714422 1.6114704,42.6046487 L1.6114704,27.1753127 C1.6114704,26.9083257 1.73690055,26.7752191 1.98795563,26.7752191 L6.8304555,26.7752191 C8.93939604,26.7752191 10.7396304,27.5676676 12.2323271,29.1523711 C13.7238553,30.7370746 14.4703984,32.6500948 14.4703984,34.889884 L14.4703984,34.889884 Z M13.7172332,34.889884 C13.7172332,32.8710363 13.0425592,31.1489699 11.6939903,29.7238782 C10.3526277,28.2914346 8.73118978,27.5748259 6.8304555,27.5748259 L2.36463562,27.5748259 L2.36463562,42.204555 L6.8304555,42.204555 C8.73118978,42.204555 10.3526277,41.4922027 11.6939903,40.067111 C13.0425592,38.634474 13.7172332,36.9091186 13.7172332,34.889884 L13.7172332,34.889884 Z" id="Fill-13"></path>
                <path d="M28.3310147,42.6046487 C28.3310147,42.8714422 28.2059741,43.0045488 27.9543347,43.0045488 L19.8841508,43.0045488 C19.6330957,43.0045488 19.5080551,42.8714422 19.5080551,42.6046487 L19.5080551,27.1753127 C19.5080551,26.9083257 19.6330957,26.7752191 19.8841508,26.7752191 L27.9543347,26.7752191 C28.2059741,26.7752191 28.3310147,26.9083257 28.3310147,27.1753127 C28.3310147,27.4415259 28.2059741,27.5748259 27.9543347,27.5748259 L20.2606361,27.5748259 L20.2606361,34.4897903 L26.3404927,34.4897903 C26.5915478,34.4897903 26.7171727,34.6234773 26.7171727,34.889884 C26.7171727,35.1566775 26.5915478,35.2899776 26.3404927,35.2899776 L20.2606361,35.2899776 L20.2606361,42.204555 L27.9543347,42.204555 C28.2059741,42.204555 28.3310147,42.3376616 28.3310147,42.6046487 L28.3310147,42.6046487 Z" id="Fill-14"></path>
                <path d="M45.4311959,42.6046487 C45.4311959,42.8714422 45.3022599,43.0045488 45.0436089,43.0045488 C44.9290857,43.0045488 44.8176788,42.9360608 44.710362,42.7990849 L34.1327437,28.3409627 L34.1327437,42.6046487 C34.1327437,42.8714422 34.0071187,43.0045488 33.7560637,43.0045488 C33.5050086,43.0045488 33.3793837,42.8714422 33.3793837,42.6046487 L33.369061,27.1753127 C33.369061,26.9083257 33.4978022,26.7752191 33.7560637,26.7752191 C33.8711711,26.7752191 33.9819937,26.8437071 34.0898948,26.98107 L44.6780307,41.4388053 L44.6780307,27.1753127 C44.6780307,26.9083257 44.8034608,26.7752191 45.0545159,26.7752191 C45.305571,26.7752191 45.4311959,26.9083257 45.4311959,27.1753127 L45.4311959,42.6046487 L45.4311959,42.6046487 Z" id="Fill-15"></path>
                <path d="M60.9064333,27.1753127 C60.9064333,27.4415259 60.7810031,27.5748259 60.5299481,27.5748259 L56.0639334,27.5748259 L56.0639334,42.6046487 C56.0639334,42.8714422 55.9388928,43.0045488 55.6878377,43.0045488 C55.4363931,43.0045488 55.3107682,42.8714422 55.3107682,42.6046487 L55.3107682,27.5748259 L50.8453379,27.5748259 C50.5942828,27.5748259 50.4686579,27.4415259 50.4686579,27.1753127 C50.4686579,26.9083257 50.5942828,26.7752191 50.8453379,26.7752191 L60.5299481,26.7752191 C60.7810031,26.7752191 60.9064333,26.9083257 60.9064333,27.1753127 L60.9064333,27.1753127 Z" id="Fill-16"></path>
                <path d="M79.6204565,42.6158699 C79.6204565,42.8751182 79.4878199,43.0045488 79.2221573,43.0045488 C79.0790033,43.0045488 78.9714918,42.9323849 78.8996226,42.7872833 L76.5857869,37.8613724 L76.5540398,37.8613724 L67.3643333,37.8613724 L65.0504976,42.7872833 C64.9792127,42.9323849 64.8717012,43.0045488 64.7281577,43.0045488 C64.4628846,43.0045488 64.330248,42.8751182 64.330248,42.6158699 C64.330248,42.524746 65.4489915,40.0864578 67.6872575,35.3011988 C69.9183172,30.5467013 71.2240373,27.8002172 71.6040284,27.0609726 C71.7043335,26.8700188 71.8264526,26.7752191 71.9696066,26.7752191 C72.1209408,26.7752191 72.246371,26.8700188 72.3466761,27.0609726 C72.7266672,27.8002172 74.0323873,30.5467013 76.2634469,35.3011988 C78.501713,40.0864578 79.6204565,42.524746 79.6204565,42.6158699 L79.6204565,42.6158699 Z M76.2096912,37.0617655 L71.9805136,28.0664303 L67.7410133,37.0617655 L76.2096912,37.0617655 L76.2096912,37.0617655 Z" id="Fill-17"></path>
                <path d="M93.4814623,42.6046487 C93.4814623,42.8714422 93.3564217,43.0045488 93.1049771,43.0045488 L85.0345984,43.0045488 C84.7835434,43.0045488 84.6585027,42.8714422 84.6585027,42.6046487 L84.6585027,27.1753127 C84.6585027,26.9083257 84.7835434,26.7752191 85.0345984,26.7752191 C85.2856535,26.7752191 85.4112784,26.9083257 85.4112784,27.1753127 L85.4112784,42.204555 L93.1049771,42.204555 C93.3564217,42.204555 93.4814623,42.3376616 93.4814623,42.6046487 L93.4814623,42.6046487 Z" id="Fill-18"></path>
                <path d="M13.6954192,14.3491315 C13.6954192,14.4483811 13.6558815,14.5400853 13.5770007,14.6236639 C12.149551,16.2083674 10.3487324,17.0008159 8.17532385,17.0008159 C6.06638331,17.0008159 4.26556467,16.2083674 2.77345223,14.6236639 C1.28133979,13.0389603 0.535380954,11.1265205 0.535380954,8.88615101 C0.535380954,6.64636189 1.28133979,4.73334169 2.77345223,3.14863816 C4.26556467,1.56393464 6.06638331,0.771486144 8.17532385,0.771486144 C10.3487324,0.771486144 12.149551,1.56393464 13.5770007,3.14863816 C13.6558815,3.23221672 13.6954192,3.32392096 13.6954192,3.42317049 C13.6954192,3.69712241 13.5660937,3.83409838 13.3078323,3.83409838 C13.2217451,3.83409838 13.1323469,3.79250257 13.0392481,3.70834361 C11.4752666,2.28383231 9.85382861,1.57109299 8.17532385,1.57109299 C6.27420004,1.57109299 4.64945105,2.28770169 3.30088213,3.72014521 C1.9595196,5.14523692 1.28854618,6.86730334 1.28854618,8.88615101 C1.28854618,10.9053856 1.9595196,12.630741 3.30088213,14.063378 C4.64945105,15.4884697 6.27420004,16.2008221 8.17532385,16.2008221 C9.85382861,16.2008221 11.4752666,15.4884697 13.0392481,14.063378 C13.1323469,13.9797995 13.2217451,13.9378167 13.3078323,13.9378167 C13.5660937,13.9378167 13.6954192,14.0747927 13.6954192,14.3491315 L13.6954192,14.3491315 Z" id="Fill-19"></path>
                <path d="M27.1631899,16.6013027 C27.1631899,16.8677093 27.0381493,17.0008159 26.7870942,17.0008159 L18.7167155,17.0008159 C18.4652709,17.0008159 18.3402303,16.8677093 18.3402303,16.6013027 L18.3402303,1.17157977 C18.3402303,0.904592728 18.4652709,0.771486144 18.7167155,0.771486144 C18.9677706,0.771486144 19.0933955,0.904592728 19.0933955,1.17157977 L19.0933955,16.2008221 L26.7870942,16.2008221 C27.0381493,16.2008221 27.1631899,16.3345091 27.1631899,16.6013027 L27.1631899,16.6013027 Z" id="Fill-20"></path>
                <path d="M32.5615557,16.6013027 C32.5615557,16.8677093 32.4355412,17.0008159 32.1844862,17.0008159 C31.9334311,17.0008159 31.8083905,16.8677093 31.8083905,16.6013027 L31.8083905,1.17157977 C31.8083905,0.904592728 31.9334311,0.771486144 32.1844862,0.771486144 C32.4355412,0.771486144 32.5615557,0.904592728 32.5615557,1.17157977 L32.5615557,16.6013027 L32.5615557,16.6013027 Z" id="Fill-21"></path>
                <path d="M50.3442015,16.6013027 C50.3442015,16.8677093 50.2152656,17.0008159 49.9570041,17.0008159 C49.8418966,17.0008159 49.7306845,16.9323279 49.6231729,16.7953519 L39.0455545,2.33722972 L39.0455545,16.6013027 C39.0455545,16.8677093 38.9201244,17.0008159 38.6690693,17.0008159 C38.4184038,17.0008159 38.2923893,16.8677093 38.2923893,16.6013027 L38.2818719,1.17157977 C38.2818719,0.904592728 38.4108078,0.771486144 38.6690693,0.771486144 C38.783982,0.771486144 38.8948046,0.839974125 39.0029005,0.977337023 L49.5914258,15.4350723 L49.5914258,1.17157977 C49.5914258,0.904592728 49.716856,0.771486144 49.9675215,0.771486144 C50.2185766,0.771486144 50.3442015,0.904592728 50.3442015,1.17157977 L50.3442015,16.6013027 L50.3442015,16.6013027 Z" id="Fill-22"></path>
                <path d="M56.8180725,16.6013027 C56.8180725,16.8677093 56.6926423,17.0008159 56.4415873,17.0008159 C56.1899479,17.0008159 56.0649073,16.8677093 56.0649073,16.6013027 L56.0649073,1.17157977 C56.0649073,0.904592728 56.1899479,0.771486144 56.4415873,0.771486144 C56.6926423,0.771486144 56.8180725,0.904592728 56.8180725,1.17157977 L56.8180725,16.6013027 L56.8180725,16.6013027 Z" id="Fill-23"></path>
                <path d="M74.6225323,14.3491315 C74.6225323,14.4483811 74.5829945,14.5400853 74.5041137,14.6236639 C73.0766641,16.2083674 71.2758454,17.0008159 69.1024369,17.0008159 C66.9929121,17.0008159 65.1926777,16.2083674 63.7005653,14.6236639 C62.2084528,13.0389603 61.4622992,11.1265205 61.4622992,8.88615101 C61.4622992,6.64636189 62.2084528,4.73334169 63.7005653,3.14863816 C65.1926777,1.56393464 66.9929121,0.771486144 69.1024369,0.771486144 C71.2758454,0.771486144 73.0766641,1.56393464 74.5041137,3.14863816 C74.5829945,3.23221672 74.6225323,3.32392096 74.6225323,3.42317049 C74.6225323,3.69712241 74.4932068,3.83409838 74.2349453,3.83409838 C74.1488582,3.83409838 74.05946,3.79250257 73.9663612,3.70834361 C72.4023796,2.28383231 70.7809417,1.57109299 69.1024369,1.57109299 C67.2013131,1.57109299 65.5765641,2.28770169 64.2279952,3.72014521 C62.8864379,5.14523692 62.2156592,6.86730334 62.2156592,8.88615101 C62.2156592,10.9053856 62.8864379,12.630741 64.2279952,14.063378 C65.5765641,15.4884697 67.2013131,16.2008221 69.1024369,16.2008221 C70.7809417,16.2008221 72.4023796,15.4884697 73.9663612,14.063378 C74.05946,13.9797995 74.1488582,13.9378167 74.2349453,13.9378167 C74.4932068,13.9378167 74.6225323,14.0747927 74.6225323,14.3491315 L74.6225323,14.3491315 Z" id="Fill-24"></path>
                <path d="M93.4814623,16.6127173 C93.4814623,16.8713852 93.3488258,17.0008159 93.0831632,17.0008159 C92.9400092,17.0008159 92.8324976,16.928652 92.7606285,16.7841307 L90.4467927,11.8576394 L90.4150457,11.8576394 L81.2253392,11.8576394 L78.9115034,16.7841307 C78.8402186,16.928652 78.732707,17.0008159 78.5891635,17.0008159 C78.3238904,17.0008159 78.1912539,16.8713852 78.1912539,16.6127173 C78.1912539,16.5210131 79.3099974,14.0827249 81.5482634,9.29746583 C83.7793231,4.54296832 85.0850432,1.79648422 85.4650342,1.05723967 C85.5657289,0.866285891 85.6874585,0.771486144 85.8306125,0.771486144 C85.9819467,0.771486144 86.1073768,0.866285891 86.207682,1.05723967 C86.587673,1.79648422 87.8933932,4.54296832 90.1244528,9.29746583 C92.3627189,14.0827249 93.4814623,16.5210131 93.4814623,16.6127173 L93.4814623,16.6127173 Z M90.070697,11.0580326 L85.8415194,2.06269739 L81.6020192,11.0580326 L90.070697,11.0580326 L90.070697,11.0580326 Z" id="Fill-25"></path>
            </g>
            <g id="Symbol">
                <path d="M94.1809603,8.69964555 L67,8.69964555 L67,0 L94.1809603,0 L94.1809603,8.69964555 L94.1809603,8.69964555 Z M83.1070352,16.0003654 L83.1070352,23.8501412 L83.1070352,24.2498053 L67,24.2498053 L67,23.8501412 L67,16.0003654 L83.1070352,16.0003654 L83.1070352,16.0003654 Z M94.1809603,31.30005 L94.1809603,40 L67,40 L67,31.30005 L94.1809603,31.30005 L94.1809603,31.30005 Z" id="Fill-3" fill="#ACADAC"></path>
                <path d="M34.0507542,0 L41.1305561,0.0494034633 C49.1137419,0.0998192927 61.2142339,5.68565022 61.3147232,20.398771 C61.3652735,32.8173641 49.8669014,39.9498879 41.9335526,40 L34.0507542,40 L34,31.4710185 L40.1261735,31.4710185 C43.8917675,31.6203425 52.2772159,29.5259596 52.1761152,19.5009035 C52.1761152,11.820386 45.1467617,8.57838497 41.0293535,8.62778844 L34.0507542,8.62778844 L34.0507542,0 L34.0507542,0 Z" id="Fill-4" fill="#3DC5DD"></path>
                <path d="M20.1841293,0.0494034633 C12.2009436,0.0998192927 0.100451497,5.68565022 0.000166108274,20.398771 C-0.0503842503,32.8173641 11.447784,39.9498879 19.3811328,40 L27.264237,40 L27.3146854,31.4710185 L21.188512,31.4710185 C17.4229179,31.6203425 9.03746952,29.5259596 9.13877407,19.5009035 C9.13877407,11.820386 16.1681276,8.57838497 20.285332,8.62778844 L27.264237,8.62778844 L27.264237,0 L20.1841293,0.0494034633 Z" id="Fill-5" fill="#3DC5DD"></path>
            </g>
        </g>
    </g>
</svg>