<?xml version="1.0" encoding="UTF-8"?>
<svg width="95px" height="40px" viewBox="0 0 95 40" version="1.1" xmlns="http://www.w3.org/2000/svg" xmlns:xlink="http://www.w3.org/1999/xlink">
    <!-- Generator: Sketch 41.2 (35397) - http://www.bohemiancoding.com/sketch -->
    <title>lgo-escariz-symbol</title>
    <desc>Created with Sketch.</desc>
    <defs></defs>
    <g id="Page-1" stroke="none" stroke-width="1" fill="none" fill-rule="evenodd">
        <g id="lgo-escariz-symbol">
            <g id="Symbol">
                <path d="M94.1809603,8.69964555 L67,8.69964555 L67,0 L94.1809603,0 L94.1809603,8.69964555 L94.1809603,8.69964555 Z M83.1070352,16.0003654 L83.1070352,23.8501412 L83.1070352,24.2498053 L67,24.2498053 L67,23.8501412 L67,16.0003654 L83.1070352,16.0003654 L83.1070352,16.0003654 Z M94.1809603,31.30005 L94.1809603,40 L67,40 L67,31.30005 L94.1809603,31.30005 L94.1809603,31.30005 Z" id="Fill-3" fill="#ACADAC"></path>
                <path d="M34.0507542,0 L41.1305561,0.0494034633 C49.1137419,0.0998192927 61.2142339,5.68565022 61.3147232,20.398771 C61.3652735,32.8173641 49.8669014,39.9498879 41.9335526,40 L34.0507542,40 L34,31.4710185 L40.1261735,31.4710185 C43.8917675,31.6203425 52.2772159,29.5259596 52.1761152,19.5009035 C52.1761152,11.820386 45.1467617,8.57838497 41.0293535,8.62778844 L34.0507542,8.62778844 L34.0507542,0 L34.0507542,0 Z" id="Fill-4" fill="#3DC5DD"></path>
                <path d="M20.1841293,0.0494034633 C12.2009436,0.0998192927 0.100451497,5.68565022 0.000166108274,20.398771 C-0.0503842503,32.8173641 11.447784,39.9498879 19.3811328,40 L27.264237,40 L27.3146854,31.4710185 L21.188512,31.4710185 C17.4229179,31.6203425 9.03746952,29.5259596 9.13877407,19.5009035 C9.13877407,11.820386 16.1681276,8.57838497 20.285332,8.62778844 L27.264237,8.62778844 L27.264237,0 L20.1841293,0.0494034633 Z" id="Fill-5" fill="#3DC5DD"></path>
            </g>
        </g>
    </g>
</svg>