<?xml version="1.0" encoding="UTF-8"?>
<svg width="349px" height="142px" viewBox="0 0 349 142" version="1.1" xmlns="http://www.w3.org/2000/svg" xmlns:xlink="http://www.w3.org/1999/xlink">
    <!-- Generator: Sketch 43.2 (39069) - http://www.bohemiancoding.com/sketch -->
    <title>lgo-oxigenolegal</title>
    <desc>Created with Sketch.</desc>
    <defs></defs>
    <g id="Page-1" stroke="none" stroke-width="1" fill="none" fill-rule="evenodd">
        <g id="lgo-oxigenolegal" transform="translate(174.500000, 71.000000) rotate(-90.000000) translate(-174.500000, -71.000000) translate(104.000000, -103.000000)">
            <path d="M87.2726,98.1955 C115.0075,98.1955 129.4169,79.9116 129.4169,59.6142 C129.4169,31.8785 107.4151,14.9907 80.9198,14.9907 C57.8325,14.9907 38.9297,30.1749 38.9297,54.5017 C38.9297,77.7439 56.7479,98.1955 87.2726,98.1955 M78.5956,0.115 C112.9932,0.115 140.8831,24.4418 140.8831,61.7835 C140.8831,91.0686 121.5154,113.2254 88.0474,113.2254 C63.8755,113.2254 27.4635,97.1116 27.4635,53.1072 C27.4635,19.3285 51.3255,0.115 78.5956,0.115" id="Fill-1" fill="#86A469"></path>
            <path d="M0.2173,150.591 C0.5326,147.8802 0.9541,118.3192 1.0587,102.5998 L1.0587,90.3488 L2.1108,90.1319 C11.685,104.659 32.7084,129.1423 49.6426,128.8603 C65.0932,128.6031 71.6104,111.1637 72.2425,98.372 L82.0903,104.1384 C79.2501,128.7472 65.8664,142.7661 49.9006,141.7357 C32.8943,140.6379 19.5037,128.6194 12.0344,119.0785 L11.6137,119.1869 L12.7712,150.591 L0.2173,150.591 Z" id="Fill-3" fill="#86A469"></path>
            <path d="M48.5001,181.7822 C55.434,181.7822 59.0373,177.2112 59.0373,172.1351 C59.0373,165.2012 53.5359,160.9781 46.9119,160.9781 C41.1393,160.9781 36.4134,164.7743 36.4134,170.8576 C36.4134,176.6674 40.8681,181.7822 48.5001,181.7822 M46.3308,157.2593 C54.9312,157.2593 61.9039,163.3418 61.9039,172.6782 C61.9039,179.9995 57.0618,185.5397 48.6938,185.5397 C42.65,185.5397 33.5469,181.5095 33.5469,170.5082 C33.5469,162.0627 39.5124,157.2593 46.3308,157.2593" id="Fill-4" fill="#AFAFAF"></path>
            <path d="M36.0263,189.41 C36.9165,190.3405 46.6403,198.6689 48.0743,199.8706 C49.8562,198.3211 56.9838,192.2773 58.7665,190.7279 L61.3611,193.5564 C59.9666,194.5621 53.8461,199.367 50.4373,202.1948 C51.9093,203.5111 60.044,210.4086 61.4393,211.4917 L58.8045,214.1258 C57.5261,212.77 49.4301,205.0226 48.151,204.1316 C46.8727,205.2937 37.9237,213.1969 36.1805,214.5906 L33.5472,211.8016 C34.786,210.9106 44.7422,202.7758 45.8268,201.8074 C45.2457,201.3426 34.167,192.4315 33.4689,191.9295 L36.0263,189.41 Z" id="Fill-5" fill="#AFAFAF"></path>
            <path d="M45.8657,225.9015 C41.992,225.9015 35.0573,226.0177 34.1663,226.0557 L34.1663,222.299 C35.8715,222.3757 44.936,222.4152 45.9439,222.4152 L50.1268,222.4152 C50.7861,222.4152 60.3541,222.299 61.2838,222.2215 L61.2838,226.0952 C60.5865,226.0177 54.6977,225.9015 50.0493,225.9015 L45.8657,225.9015 Z M69.2256,227.3735 L66.5133,229.2321 L63.2594,223.0737 L64.6547,222.0658 L69.2256,227.3735 Z" id="Fill-6" fill="#AFAFAF"></path>
            <path d="M40.2095,256.5052 C38.7382,256.5052 35.2899,256.6199 34.7863,256.6199 C34.1278,254.8767 33.5467,251.2742 33.5467,248.0605 C33.5467,239.2657 38.4663,233.6488 44.8587,233.6488 C49.236,233.6488 58.0688,238.1811 62.0199,252.8236 L58.6498,253.5999 C56.9454,244.7663 50.9791,237.483 44.8199,237.483 C40.7905,237.483 36.297,241.2025 36.297,248.8725 C36.297,250.4994 36.5682,252.0884 36.8781,253.0189 L43.3479,253.0189 C44.4713,253.0189 45.7884,252.9398 46.0208,252.9027 L46.0208,256.5432 C45.0911,256.5052 44.1994,256.5052 43.0373,256.5052 L40.2095,256.5052 Z" id="Fill-7" fill="#AFAFAF"></path>
            <path d="M33.7793,278.7397 C33.7793,278.1191 34.1667,266.4585 34.1667,265.6838 C36.2197,265.8008 44.5102,265.8008 45.4011,265.8008 L50.5919,265.8008 C51.2117,265.8008 60.5481,265.7217 61.2841,265.6838 C61.2841,266.6135 61.8651,276.7238 62.0201,277.9649 L58.9599,278.1191 C58.9599,276.8803 58.7662,269.9061 58.7662,269.2871 L48.9262,269.2871 C48.9262,269.9843 49.1199,274.9435 49.3523,276.8408 L46.2913,276.957 C46.2913,276.1056 46.447,270.0618 46.447,269.2871 L36.9944,269.2871 C36.9944,270.216 36.8782,275.4075 37.1107,278.584 L33.7793,278.7397 Z" id="Fill-8" fill="#AFAFAF"></path>
            <path d="M34.1667,286.7564 C37.0719,286.9501 58.8437,287.996 62.8336,288.1896 L62.8336,288.2663 C61.594,289.3518 42.1077,308.1012 40.8681,309.3416 C41.9536,309.3416 60.1994,309.5732 61.4778,309.6127 L61.2841,313.2153 C58.9599,313.0596 43.1157,312.3243 33.3524,312.1702 L33.3524,312.0911 C34.3991,311.046 54.5043,291.4443 55.4728,290.7463 L55.4728,290.6696 C54.117,290.6696 35.1738,290.3589 33.8947,290.3984 L34.1667,286.7564 Z" id="Fill-9" fill="#AFAFAF"></path>
            <path d="M48.5001,344.1265 C55.434,344.1265 59.0373,339.5555 59.0373,334.4802 C59.0373,327.547 53.5359,323.3232 46.9119,323.3232 C41.1393,323.3232 36.4134,327.1202 36.4134,333.2026 C36.4134,339.0132 40.8681,344.1265 48.5001,344.1265 M46.3308,319.6044 C54.9312,319.6044 61.9039,325.6869 61.9039,335.0233 C61.9039,342.3453 57.0618,347.8855 48.6938,347.8855 C42.65,347.8855 33.5469,343.8553 33.5469,332.8532 C33.5469,324.4086 39.5124,319.6044 46.3308,319.6044" id="Fill-10" fill="#AFAFAF"></path>
            <path d="M27.9703,164.5431 C27.1173,164.3874 19.4861,164.2332 14.6053,164.2332 L3.6419,164.2332 C3.6419,165.1622 3.6419,169.7331 3.7976,173.4526 L0.4655,173.4526 C0.4655,172.9103 0.8528,161.4047 0.8528,160.4362 C2.9059,160.7469 11.1964,160.7469 12.1261,160.7469 L17.2781,160.7469 C17.8987,160.7469 27.2343,160.6687 27.9703,160.5904 L27.9703,164.5431 Z" id="Fill-11" fill="#AFAFAF"></path>
            <path d="M0.4655,194.3309 C0.4655,193.7119 0.8528,182.0512 0.8528,181.2765 C2.9059,181.3919 11.1964,181.3919 12.0873,181.3919 L17.2781,181.3919 C17.8987,181.3919 27.2343,181.3145 27.9703,181.2765 C27.9703,182.2062 28.5513,192.3165 28.7063,193.5561 L25.6461,193.7119 C25.6461,192.4715 25.4524,185.4988 25.4524,184.8798 L15.6124,184.8798 C15.6124,185.5755 15.8061,190.5346 16.0393,192.4335 L12.9775,192.5497 C12.9775,191.6968 13.134,185.6546 13.134,184.8798 L3.6806,184.8798 C3.6806,185.8087 3.5644,191.0003 3.7976,194.1767 L0.4655,194.3309 Z" id="Fill-12" fill="#AFAFAF"></path>
            <path d="M6.8964,222.9962 C5.4244,222.9962 1.9761,223.1124 1.4725,223.1124 C0.814,221.3693 0.2329,217.7667 0.2329,214.5516 C0.2329,205.7583 5.1533,200.1399 11.5449,200.1399 C15.9222,200.1399 24.755,204.6736 28.7061,219.3162 L25.336,220.091 C23.6316,211.2589 17.6653,203.9756 11.5061,203.9756 C7.4775,203.9756 2.9832,207.6951 2.9832,215.3651 C2.9832,216.992 3.2544,218.581 3.5643,219.5099 L10.0341,219.5099 C11.1575,219.5099 12.4746,219.4324 12.707,219.3937 L12.707,223.0357 C11.7781,222.9962 10.8863,222.9962 9.7242,222.9962 L6.8964,222.9962 Z" id="Fill-13" fill="#AFAFAF"></path>
            <path d="M12.6684,247.0132 C13.5214,246.5863 22.5471,241.8216 23.1669,241.4343 C22.3139,240.8532 12.8233,236.3985 12.2028,236.0506 L12.6684,247.0132 Z M2.1312,227.2558 C5.8499,229.3863 27.8541,240.5425 29.3261,241.4738 L29.3261,241.5505 C23.8247,244.9601 6.3543,254.1415 2.3249,256.7764 L0.1556,253.4822 C1.6276,252.7075 9.5687,248.6022 10.1892,248.1753 L9.6469,234.732 C8.9101,234.2679 1.4339,231.0915 0.1168,230.4322 L2.1312,227.2558 Z" id="Fill-14" fill="#AFAFAF"></path>
            <path d="M27.9703,267.0777 C27.1173,266.9235 19.4861,266.7678 14.6053,266.7678 L3.6419,266.7678 C3.6419,267.6982 3.6419,272.2692 3.7976,275.9872 L0.4655,275.9872 C0.4655,275.4456 0.8528,263.9392 0.8528,262.9708 C2.9059,263.2815 11.1964,263.2815 12.1261,263.2815 L17.2781,263.2815 C17.8987,263.2815 27.2343,263.204 27.9703,263.1265 L27.9703,267.0777 Z" id="Fill-15" fill="#AFAFAF"></path>
        </g>
    </g>
</svg>